<?xml version="1.0" encoding="UTF-8"?>
<svg xmlns="http://www.w3.org/2000/svg" viewBox="0 0 1200 100" width="600" height="50">

<g id="surface1">
<path style=" stroke:none;fill-rule:nonzero;fill:rgb(0.392157%,60.000002%,100%);fill-opacity:1;" d="M 0 0 C 33 0 66 0 100 0 C 100 30.191406 100 60.382812 100 91.488281 C 67 91.488281 34 91.488281 0 91.488281 C 0 61.296875 0 31.105469 0 0 Z M 0 0 "/>
<path style=" stroke:none;fill-rule:nonzero;fill:rgb(98.431373%,99.215686%,100%);fill-opacity:1;" d="M 37.019531 15.320312 C 46.515625 15.25 46.515625 15.25 50.578125 15.234375 C 53.34375 15.226562 56.113281 15.214844 58.878906 15.191406 C 61.113281 15.171875 63.34375 15.160156 65.574219 15.15625 C 66.425781 15.15625 67.273438 15.148438 68.125 15.140625 C 77.589844 15.039062 77.589844 15.039062 81.128906 17.949219 C 81.390625 18.265625 81.648438 18.582031 81.914062 18.910156 C 82.183594 19.226562 82.449219 19.539062 82.726562 19.867188 C 83.9375 21.625 84.363281 23.128906 84.359375 25.253906 C 84.359375 25.929688 84.359375 25.929688 84.359375 26.617188 C 84.355469 27.355469 84.355469 27.355469 84.351562 28.101562 C 84.351562 28.621094 84.351562 29.140625 84.351562 29.675781 C 84.351562 31.097656 84.347656 32.515625 84.339844 33.933594 C 84.335938 35.421875 84.335938 36.90625 84.335938 38.390625 C 84.332031 41.203125 84.324219 44.011719 84.316406 46.824219 C 84.308594 50.023438 84.300781 53.222656 84.296875 56.425781 C 84.289062 63.007812 84.273438 69.589844 84.253906 76.171875 C 76.441406 76.210938 68.628906 76.238281 60.816406 76.257812 C 57.191406 76.265625 53.5625 76.277344 49.933594 76.296875 C 46.773438 76.316406 43.609375 76.328125 40.445312 76.332031 C 38.773438 76.332031 37.097656 76.335938 35.425781 76.351562 C 33.847656 76.363281 32.269531 76.367188 30.691406 76.363281 C 29.84375 76.363281 28.992188 76.371094 28.140625 76.382812 C 24.402344 76.363281 21.617188 75.738281 18.589844 73.511719 C 15.96875 70.828125 15.265625 67.9375 15.269531 64.265625 C 15.269531 63.972656 15.269531 63.675781 15.269531 63.375 C 15.269531 62.402344 15.273438 61.429688 15.277344 60.457031 C 15.277344 59.785156 15.277344 59.109375 15.28125 58.433594 C 15.28125 56.660156 15.285156 54.886719 15.289062 53.113281 C 15.296875 50.980469 15.296875 48.851562 15.300781 46.722656 C 15.304688 43.488281 15.3125 40.253906 15.320312 37.019531 C 20.515625 37.019531 25.710938 37.019531 31.0625 37.019531 C 31.0625 44.746094 31.0625 52.46875 31.0625 60.425781 C 43.421875 60.425781 55.777344 60.425781 68.511719 60.425781 C 68.511719 50.734375 68.511719 41.046875 68.511719 31.0625 C 63.175781 31.0625 57.839844 31.0625 52.339844 31.0625 C 52.339844 36.398438 52.339844 41.734375 52.339844 47.234375 C 47.285156 47.234375 42.230469 47.234375 37.019531 47.234375 C 37.019531 36.703125 37.019531 26.171875 37.019531 15.320312 Z M 37.019531 15.320312 "/>
<path style=" stroke:none;fill-rule:nonzero;fill:rgb(96.470588%,98.431373%,100%);fill-opacity:1;" d="M 15.320312 15.320312 C 20.65625 15.320312 25.992188 15.320312 31.488281 15.320312 C 31.488281 20.65625 31.488281 25.992188 31.488281 31.488281 C 26.152344 31.488281 20.816406 31.488281 15.320312 31.488281 C 15.320312 26.152344 15.320312 20.816406 15.320312 15.320312 Z M 15.320312 15.320312 "/>
</g>

  <text x="120" y="65" 
        font-family="Arial, sans-serif" 
        font-size="50" 
        font-weight="bold" 
        fill="#0199FF" 
        text-anchor="start">
    INFRAGISTICS WPF TA DOCS
  </text>
</svg>
